# Exported from PrimitivesPro, Unity3D asset
# http://u3d.as/4gQ
--------------------------------------------

mtllib Diffuse.mtl
g CirclePro
v 0 0 1
v 0.309017 0 0.9510565
v 0.5877852 0 0.809017
v 0.809017 0 0.5877852
v 0.9510565 0 0.309017
v 1 0 -4.371139E-08
v 0.9510565 0 -0.309017
v 0.809017 0 -0.5877852
v 0.5877852 0 -0.8090171
v 0.3090168 0 -0.9510566
v -8.742278E-08 0 -1
v -0.3090172 0 -0.9510564
v -0.5877854 0 -0.8090169
v -0.8090171 0 -0.5877851
v -0.9510565 0 -0.3090171
v -1 0 1.192488E-08
v -0.9510565 0 0.3090171
v -0.8090168 0 0.5877855
v -0.5877849 0 0.8090172
v -0.3090169 0 0.9510565
v 0 0 0

vn 0 1 0
vn 0 1 0
vn 0 1 0
vn 0 1 0
vn 0 1 0
vn 0 1 0
vn 0 1 0
vn 0 1 0
vn 0 1 0
vn 0 1 0
vn 0 1 0
vn 0 1 0
vn 0 1 0
vn 0 1 0
vn 0 1 0
vn 0 1 0
vn 0 1 0
vn 0 1 0
vn 0 1 0
vn 0 1 0
vn 0 1 0

vt 0.5 1
vt 0.6545085 0.9755282
vt 0.7938926 0.9045085
vt 0.9045085 0.7938926
vt 0.9755282 0.6545085
vt 1 0.5
vt 0.9755282 0.3454915
vt 0.9045085 0.2061074
vt 0.7938926 0.09549147
vt 0.6545084 0.0244717
vt 0.5 0
vt 0.3454914 0.02447179
vt 0.2061073 0.09549153
vt 0.09549144 0.2061075
vt 0.02447176 0.3454915
vt 0 0.5
vt 0.02447176 0.6545086
vt 0.09549159 0.7938927
vt 0.2061075 0.9045086
vt 0.3454915 0.9755282
vt 0.5 0.5

usemtl default
f 1/1/1 2/2/2 21/21/21
f 2/2/2 3/3/3 21/21/21
f 3/3/3 4/4/4 21/21/21
f 4/4/4 5/5/5 21/21/21
f 5/5/5 6/6/6 21/21/21
f 6/6/6 7/7/7 21/21/21
f 7/7/7 8/8/8 21/21/21
f 8/8/8 9/9/9 21/21/21
f 9/9/9 10/10/10 21/21/21
f 10/10/10 11/11/11 21/21/21
f 11/11/11 12/12/12 21/21/21
f 12/12/12 13/13/13 21/21/21
f 13/13/13 14/14/14 21/21/21
f 14/14/14 15/15/15 21/21/21
f 15/15/15 16/16/16 21/21/21
f 16/16/16 17/17/17 21/21/21
f 17/17/17 18/18/18 21/21/21
f 18/18/18 19/19/19 21/21/21
f 19/19/19 20/20/20 21/21/21
f 20/20/20 1/1/1 21/21/21
